<mxfile host="app.diagrams.net" modified="2023-09-29T16:54:18.071Z" agent="Mozilla/5.0 (X11; Linux x86_64; rv:109.0) Gecko/20100101 Firefox/111.0" etag="jeQ3gM1JJUFjRTHDt0Cf" version="22.0.0" type="github">
  <diagram id="R2lEEEUBdFMjLlhIrx00" name="Page-1">
    <mxGraphModel dx="1434" dy="723" grid="1" gridSize="10" guides="1" tooltips="1" connect="1" arrows="1" fold="1" page="1" pageScale="1" pageWidth="850" pageHeight="1100" math="0" shadow="0" extFonts="Permanent Marker^https://fonts.googleapis.com/css?family=Permanent+Marker">
      <root>
        <mxCell id="0" />
        <mxCell id="1" parent="0" />
        <mxCell id="W7sd4XWDmaHd9BAGbtEF-3" value="" style="edgeStyle=orthogonalEdgeStyle;rounded=0;orthogonalLoop=1;jettySize=auto;html=1;" edge="1" parent="1" source="W7sd4XWDmaHd9BAGbtEF-1" target="W7sd4XWDmaHd9BAGbtEF-2">
          <mxGeometry relative="1" as="geometry" />
        </mxCell>
        <mxCell id="W7sd4XWDmaHd9BAGbtEF-1" value="ACADEMIA" style="rounded=1;whiteSpace=wrap;html=1;" vertex="1" parent="1">
          <mxGeometry x="60" y="80" width="120" height="60" as="geometry" />
        </mxCell>
        <mxCell id="W7sd4XWDmaHd9BAGbtEF-5" value="" style="edgeStyle=orthogonalEdgeStyle;rounded=0;orthogonalLoop=1;jettySize=auto;html=1;" edge="1" parent="1" source="W7sd4XWDmaHd9BAGbtEF-2" target="W7sd4XWDmaHd9BAGbtEF-4">
          <mxGeometry relative="1" as="geometry" />
        </mxCell>
        <mxCell id="W7sd4XWDmaHd9BAGbtEF-2" value="TEM" style="rhombus;whiteSpace=wrap;html=1;rounded=1;" vertex="1" parent="1">
          <mxGeometry x="80" y="210" width="80" height="80" as="geometry" />
        </mxCell>
        <mxCell id="W7sd4XWDmaHd9BAGbtEF-7" value="" style="edgeStyle=orthogonalEdgeStyle;rounded=0;orthogonalLoop=1;jettySize=auto;html=1;" edge="1" parent="1" source="W7sd4XWDmaHd9BAGbtEF-4" target="W7sd4XWDmaHd9BAGbtEF-6">
          <mxGeometry relative="1" as="geometry" />
        </mxCell>
        <mxCell id="W7sd4XWDmaHd9BAGbtEF-4" value="ALUNOS" style="whiteSpace=wrap;html=1;rounded=1;" vertex="1" parent="1">
          <mxGeometry x="60" y="380" width="120" height="60" as="geometry" />
        </mxCell>
        <mxCell id="W7sd4XWDmaHd9BAGbtEF-9" value="" style="edgeStyle=orthogonalEdgeStyle;rounded=0;orthogonalLoop=1;jettySize=auto;html=1;" edge="1" parent="1" source="W7sd4XWDmaHd9BAGbtEF-6" target="W7sd4XWDmaHd9BAGbtEF-8">
          <mxGeometry relative="1" as="geometry" />
        </mxCell>
        <mxCell id="W7sd4XWDmaHd9BAGbtEF-6" value="ORGANIZADO" style="rhombus;whiteSpace=wrap;html=1;rounded=1;" vertex="1" parent="1">
          <mxGeometry x="280" y="370" width="110" height="80" as="geometry" />
        </mxCell>
        <mxCell id="W7sd4XWDmaHd9BAGbtEF-11" value="" style="edgeStyle=orthogonalEdgeStyle;rounded=0;orthogonalLoop=1;jettySize=auto;html=1;" edge="1" parent="1" source="W7sd4XWDmaHd9BAGbtEF-8" target="W7sd4XWDmaHd9BAGbtEF-10">
          <mxGeometry relative="1" as="geometry" />
        </mxCell>
        <mxCell id="W7sd4XWDmaHd9BAGbtEF-21" value="" style="edgeStyle=orthogonalEdgeStyle;rounded=0;orthogonalLoop=1;jettySize=auto;html=1;" edge="1" parent="1" source="W7sd4XWDmaHd9BAGbtEF-8" target="W7sd4XWDmaHd9BAGbtEF-20">
          <mxGeometry relative="1" as="geometry" />
        </mxCell>
        <mxCell id="W7sd4XWDmaHd9BAGbtEF-8" value="&lt;div&gt;TURMA &lt;br&gt;&lt;/div&gt;&lt;div&gt;------------------------------&lt;/div&gt;&lt;div&gt;n° de alunos&lt;/div&gt;&lt;div&gt;horários de aulas&lt;/div&gt;&lt;div&gt;duração da aula&lt;/div&gt;&lt;div&gt;data inicial&lt;/div&gt;&lt;div&gt;data final&lt;/div&gt;&lt;div&gt;tipo de atividade&lt;br&gt;&lt;/div&gt;" style="whiteSpace=wrap;html=1;rounded=1;" vertex="1" parent="1">
          <mxGeometry x="400" y="490" width="145" height="140" as="geometry" />
        </mxCell>
        <mxCell id="W7sd4XWDmaHd9BAGbtEF-13" value="" style="edgeStyle=orthogonalEdgeStyle;rounded=0;orthogonalLoop=1;jettySize=auto;html=1;" edge="1" parent="1" source="W7sd4XWDmaHd9BAGbtEF-10" target="W7sd4XWDmaHd9BAGbtEF-12">
          <mxGeometry relative="1" as="geometry" />
        </mxCell>
        <mxCell id="W7sd4XWDmaHd9BAGbtEF-10" value="ASSOCIADO" style="rhombus;whiteSpace=wrap;html=1;rounded=1;" vertex="1" parent="1">
          <mxGeometry x="207.5" y="520" width="80" height="80" as="geometry" />
        </mxCell>
        <mxCell id="W7sd4XWDmaHd9BAGbtEF-15" value="" style="edgeStyle=orthogonalEdgeStyle;rounded=0;orthogonalLoop=1;jettySize=auto;html=1;" edge="1" parent="1" source="W7sd4XWDmaHd9BAGbtEF-12" target="W7sd4XWDmaHd9BAGbtEF-14">
          <mxGeometry relative="1" as="geometry" />
        </mxCell>
        <mxCell id="W7sd4XWDmaHd9BAGbtEF-12" value="ATIVIDADE" style="whiteSpace=wrap;html=1;rounded=1;" vertex="1" parent="1">
          <mxGeometry x="27.5" y="530" width="120" height="60" as="geometry" />
        </mxCell>
        <mxCell id="W7sd4XWDmaHd9BAGbtEF-19" value="" style="edgeStyle=orthogonalEdgeStyle;rounded=0;orthogonalLoop=1;jettySize=auto;html=1;" edge="1" parent="1" source="W7sd4XWDmaHd9BAGbtEF-14" target="W7sd4XWDmaHd9BAGbtEF-18">
          <mxGeometry relative="1" as="geometry" />
        </mxCell>
        <mxCell id="W7sd4XWDmaHd9BAGbtEF-14" value="ORIENTAR" style="rhombus;whiteSpace=wrap;html=1;rounded=1;" vertex="1" parent="1">
          <mxGeometry x="47.5" y="660" width="80" height="80" as="geometry" />
        </mxCell>
        <mxCell id="W7sd4XWDmaHd9BAGbtEF-26" style="edgeStyle=orthogonalEdgeStyle;rounded=0;orthogonalLoop=1;jettySize=auto;html=1;" edge="1" parent="1" source="W7sd4XWDmaHd9BAGbtEF-18" target="W7sd4XWDmaHd9BAGbtEF-24">
          <mxGeometry relative="1" as="geometry" />
        </mxCell>
        <mxCell id="W7sd4XWDmaHd9BAGbtEF-18" value="&lt;div&gt;INSTRUTOR&lt;/div&gt;&lt;div&gt;-----------------------------&lt;/div&gt;&lt;div&gt;RG&lt;/div&gt;&lt;div&gt;nome&lt;/div&gt;&lt;div&gt;data de nascimento&lt;/div&gt;&lt;div&gt;titulação&lt;/div&gt;&lt;div&gt;telefone&lt;br&gt;&lt;/div&gt;" style="whiteSpace=wrap;html=1;rounded=1;" vertex="1" parent="1">
          <mxGeometry x="370" y="680" width="152.5" height="130" as="geometry" />
        </mxCell>
        <mxCell id="W7sd4XWDmaHd9BAGbtEF-23" value="" style="edgeStyle=orthogonalEdgeStyle;rounded=0;orthogonalLoop=1;jettySize=auto;html=1;" edge="1" parent="1" source="W7sd4XWDmaHd9BAGbtEF-20" target="W7sd4XWDmaHd9BAGbtEF-22">
          <mxGeometry relative="1" as="geometry" />
        </mxCell>
        <mxCell id="W7sd4XWDmaHd9BAGbtEF-20" value="EXISTE" style="rhombus;whiteSpace=wrap;html=1;rounded=1;" vertex="1" parent="1">
          <mxGeometry x="657.5" y="520" width="80" height="80" as="geometry" />
        </mxCell>
        <mxCell id="W7sd4XWDmaHd9BAGbtEF-25" value="" style="edgeStyle=orthogonalEdgeStyle;rounded=0;orthogonalLoop=1;jettySize=auto;html=1;" edge="1" parent="1" source="W7sd4XWDmaHd9BAGbtEF-22" target="W7sd4XWDmaHd9BAGbtEF-24">
          <mxGeometry relative="1" as="geometry" />
        </mxCell>
        <mxCell id="W7sd4XWDmaHd9BAGbtEF-22" value="MONITOR" style="whiteSpace=wrap;html=1;rounded=1;" vertex="1" parent="1">
          <mxGeometry x="637.5" y="370" width="120" height="60" as="geometry" />
        </mxCell>
        <mxCell id="W7sd4XWDmaHd9BAGbtEF-24" value="AUXILIA" style="rhombus;whiteSpace=wrap;html=1;rounded=1;" vertex="1" parent="1">
          <mxGeometry x="857.5" y="360" width="80" height="80" as="geometry" />
        </mxCell>
        <mxCell id="W7sd4XWDmaHd9BAGbtEF-28" value="1" style="text;html=1;strokeColor=none;fillColor=none;align=center;verticalAlign=middle;whiteSpace=wrap;rounded=0;" vertex="1" parent="1">
          <mxGeometry x="120" y="160" width="60" height="30" as="geometry" />
        </mxCell>
        <mxCell id="W7sd4XWDmaHd9BAGbtEF-29" value="1...n" style="text;html=1;strokeColor=none;fillColor=none;align=center;verticalAlign=middle;whiteSpace=wrap;rounded=0;" vertex="1" parent="1">
          <mxGeometry x="120" y="300" width="60" height="30" as="geometry" />
        </mxCell>
        <mxCell id="W7sd4XWDmaHd9BAGbtEF-31" value="1...n" style="text;html=1;strokeColor=none;fillColor=none;align=center;verticalAlign=middle;whiteSpace=wrap;rounded=0;" vertex="1" parent="1">
          <mxGeometry x="200" y="380" width="60" height="30" as="geometry" />
        </mxCell>
        <mxCell id="W7sd4XWDmaHd9BAGbtEF-32" value="1...n" style="text;html=1;strokeColor=none;fillColor=none;align=center;verticalAlign=middle;whiteSpace=wrap;rounded=0;" vertex="1" parent="1">
          <mxGeometry x="480" y="460" width="60" height="30" as="geometry" />
        </mxCell>
        <mxCell id="W7sd4XWDmaHd9BAGbtEF-34" value="1" style="text;html=1;strokeColor=none;fillColor=none;align=center;verticalAlign=middle;whiteSpace=wrap;rounded=0;" vertex="1" parent="1">
          <mxGeometry x="770" y="370" width="60" height="30" as="geometry" />
        </mxCell>
        <mxCell id="W7sd4XWDmaHd9BAGbtEF-35" value="1" style="text;html=1;strokeColor=none;fillColor=none;align=center;verticalAlign=middle;whiteSpace=wrap;rounded=0;" vertex="1" parent="1">
          <mxGeometry x="900" y="490" width="60" height="30" as="geometry" />
        </mxCell>
        <mxCell id="W7sd4XWDmaHd9BAGbtEF-36" value="n" style="text;html=1;strokeColor=none;fillColor=none;align=center;verticalAlign=middle;whiteSpace=wrap;rounded=0;" vertex="1" parent="1">
          <mxGeometry x="280" y="710" width="60" height="30" as="geometry" />
        </mxCell>
        <mxCell id="W7sd4XWDmaHd9BAGbtEF-37" value="1" style="text;html=1;strokeColor=none;fillColor=none;align=center;verticalAlign=middle;whiteSpace=wrap;rounded=0;" vertex="1" parent="1">
          <mxGeometry x="87.5" y="610" width="60" height="30" as="geometry" />
        </mxCell>
        <mxCell id="W7sd4XWDmaHd9BAGbtEF-38" value="1" style="text;html=1;strokeColor=none;fillColor=none;align=center;verticalAlign=middle;whiteSpace=wrap;rounded=0;" vertex="1" parent="1">
          <mxGeometry x="150" y="530" width="60" height="30" as="geometry" />
        </mxCell>
        <mxCell id="W7sd4XWDmaHd9BAGbtEF-39" value="1" style="text;html=1;strokeColor=none;fillColor=none;align=center;verticalAlign=middle;whiteSpace=wrap;rounded=0;" vertex="1" parent="1">
          <mxGeometry x="320" y="530" width="60" height="30" as="geometry" />
        </mxCell>
        <mxCell id="W7sd4XWDmaHd9BAGbtEF-40" value="1" style="text;html=1;strokeColor=none;fillColor=none;align=center;verticalAlign=middle;whiteSpace=wrap;rounded=0;" vertex="1" parent="1">
          <mxGeometry x="637.5" y="460" width="60" height="30" as="geometry" />
        </mxCell>
        <mxCell id="W7sd4XWDmaHd9BAGbtEF-41" value="1" style="text;html=1;strokeColor=none;fillColor=none;align=center;verticalAlign=middle;whiteSpace=wrap;rounded=0;" vertex="1" parent="1">
          <mxGeometry x="570" y="530" width="60" height="30" as="geometry" />
        </mxCell>
      </root>
    </mxGraphModel>
  </diagram>
</mxfile>
